<svg xmlns="http://www.w3.org/2000/svg" xmlns:xlink="http://www.w3.org/1999/xlink" viewBox="0 0 83.44 53.86"><defs><style>.cls-1{fill:url(#linear-gradient);}.cls-2{fill:url(#linear-gradient-2);}.cls-3{fill:url(#linear-gradient-3);}.cls-4{fill:url(#linear-gradient-4);}.cls-5{fill:url(#linear-gradient-5);}.cls-6{fill:url(#linear-gradient-6);}.cls-7{fill:url(#linear-gradient-7);}</style><linearGradient id="linear-gradient" x1="41.71" y1="58.02" x2="41.71" y2="31.11" gradientTransform="matrix(1, 0, 0, -1, 0, 58.02)" gradientUnits="userSpaceOnUse"><stop offset="0" stop-color="#fff33b"/><stop offset="0.04" stop-color="#fee72e"/><stop offset="0.12" stop-color="#fed51b"/><stop offset="0.2" stop-color="#fdca10"/><stop offset="0.28" stop-color="#fdc70c"/><stop offset="0.67" stop-color="#f3903f"/><stop offset="0.89" stop-color="#ed683c"/><stop offset="1" stop-color="#e93e3a"/></linearGradient><linearGradient id="linear-gradient-2" x1="37.56" y1="1.51" x2="37.56" y2="28.87" gradientTransform="matrix(1, 0, 0, -1, 0, 58.02)" gradientUnits="userSpaceOnUse"><stop offset="0" stop-color="#2484c6"/><stop offset="1" stop-color="#f9ed32"/></linearGradient><linearGradient id="linear-gradient-3" x1="59.45" y1="1.68" x2="59.45" y2="28.94" xlink:href="#linear-gradient-2"/><linearGradient id="linear-gradient-4" x1="32.15" y1="1.46" x2="32.15" y2="29.03" xlink:href="#linear-gradient-2"/><linearGradient id="linear-gradient-5" x1="41.67" y1="41.12" x2="41.67" y2="31.09" xlink:href="#linear-gradient"/><linearGradient id="linear-gradient-6" x1="18.71" y1="1.45" x2="18.71" y2="28.91" xlink:href="#linear-gradient-2"/><linearGradient id="linear-gradient-7" x1="73.11" y1="1.68" x2="73.11" y2="28.89" xlink:href="#linear-gradient-2"/></defs><g id="Layer_2" data-name="Layer 2"><g id="Layer_1-2" data-name="Layer 1"><g id="Layer_2-2" data-name="Layer 2"><g id="Layer_1-2-2" data-name="Layer 1-2"><path class="cls-1" d="M24.34,12.87a11.89,11.89,0,0,1,.38-2.13c.19-.53.1-1.12.36-1.58a4.73,4.73,0,0,0,.27-1.49,3,3,0,0,1,.2-.4.56.56,0,0,0,.1-.28c0-.3,0-.6.05-.9a4.57,4.57,0,0,1,.22-.62A.75.75,0,0,0,26,5.18a4.57,4.57,0,0,1,0-.74c.06-.29.2-.56.26-.85a4.27,4.27,0,0,0,.1-.8,1.22,1.22,0,0,1,.26-.92c.1-.1.08-.29.08-.43,0-.58.53-1,1.19-1.19a.36.36,0,0,0,.18-.07A.8.8,0,0,1,29,.12c.09,0,.16.13.24.13a1.77,1.77,0,0,1,1,.52,5,5,0,0,0,.81.38c.42.24.82.51,1.25.76.19.11.42.19.61.3s.53.35.81.5.56.24.82.39c.43.23.84.5,1.27.74.25.14.57.23.8.39.4.29,1,.35,1.3.77.09.13.34.19.53.28.47.23,1,.43,1.42.68s1,.65,1.59.94a.47.47,0,0,0,.63,0,2.71,2.71,0,0,1,.63-.38l1.46-.82c.22-.12.46-.21.68-.33s.71-.43,1.08-.63l1.51-.8c.42-.23.82-.49,1.24-.72l1.21-.66.5-.29C51,2,51.52,1.7,52.06,1.39a17.57,17.57,0,0,1,1.6-1A2.48,2.48,0,0,1,55,0a2.39,2.39,0,0,1,1.46.93c.36.46.11,1,.35,1.37s.12,1,.37,1.4.16,1,.27,1.42c.06.15.13.29.2.43a2.11,2.11,0,0,1,.12.48A3.07,3.07,0,0,0,58,7.28c.19.34.08.77.13,1.16a3,3,0,0,0,.22.52.69.69,0,0,1,.08.28v1c0,.18,0,.39.25.49v.11a.09.09,0,0,1,0,.07,3.32,3.32,0,0,0,.4,2h.06a14.66,14.66,0,0,0,2.8.33c.64.41,1.49.12,2.15.44h.13l2.91.34a1,1,0,0,1,.75.21c0,.06.23,0,.35.06a11.92,11.92,0,0,1,1.34.05,3.26,3.26,0,0,1,.63.18,2.79,2.79,0,0,0,.4.07,3.77,3.77,0,0,1,1.6.22,2.08,2.08,0,0,0,.86.06,2.14,2.14,0,0,1,1.37.52A1.2,1.2,0,0,1,75,16.56a2.61,2.61,0,0,1-.5.85A5.79,5.79,0,0,1,74,18c-.17.19-.35.37-.53.56s-.1.08-.11.13c0,.32-.39.47-.61.69a7.5,7.5,0,0,0-.48.62l-.49.56c-.16.19-.35.47-.55.7s-.6.65-.89,1-.33.43-.51.63-.41.44-.6.67-.51.63-.78.94c-.07.09-.2.16-.27.25a10.09,10.09,0,0,1-.78.95c-.37.35-.48.88-1.08,1.08a1.62,1.62,0,0,1-.54.1H59.45c-.32,0-.64.07-.8-.25,0-.09-.13-.18-.14-.28A8,8,0,0,0,58.43,25,4.58,4.58,0,0,0,58,23.42c-.17-.32-.21-.63-.34-.93a9.72,9.72,0,0,0-.55-1,.43.43,0,0,1-.09-.22,1.6,1.6,0,0,0-.57-.85.34.34,0,0,1-.11-.17c0-.3-.32-.45-.54-.65a.48.48,0,0,1-.11-.08A4.49,4.49,0,0,0,54.3,18c-.28-.2-.46-.5-.75-.68a4.52,4.52,0,0,0-1.21-.8,5.77,5.77,0,0,1-.91-.57c-.5-.27-1-.51-1.54-.76l-1-.46-.19-.06c-.54-.17-1.08-.37-1.64-.51s-1.2-.25-1.8-.34a3.55,3.55,0,0,1-1.4-.23.89.89,0,0,0-.4-.06H39.78a2.81,2.81,0,0,0-.54.17,2.48,2.48,0,0,1-.61.07,7.18,7.18,0,0,0-2.33.48h-.16l-1.6.53h0c-.71,0-1.16.47-1.75.69a8.27,8.27,0,0,0-1.21.73c-.21.13-.47.22-.68.36s-.68.44-1,.68-.63.51-.93.77a3.65,3.65,0,0,0-.5.54l-.38.43c-.31.33-.64.65-.93,1a2.7,2.7,0,0,0-.35.53c-.16.28-.29.57-.44.85a1.94,1.94,0,0,1-.21.29l-.09.11A4.17,4.17,0,0,1,25.63,23c-.31.43-.11.94-.36,1.28-.5.67-.18,1.36-.29,2-.07.41-.28.6-.8.6H17.49a1.11,1.11,0,0,1-.82-.36,7.3,7.3,0,0,1-1-1.15c-.21-.3-.61-.54-.72-.79-.17-.44-.58-.7-.82-1.07A5.22,5.22,0,0,0,13,22.25c-.28-.23-.34-.54-.62-.77a8.59,8.59,0,0,1-1-1,4.12,4.12,0,0,1-.33-.4c-.28-.37-.54-.76-.84-1.13s-.51-.61-.75-.94-1-.7-.91-1.28c0-.06-.14-.12-.15-.18a1.29,1.29,0,0,1,0-.48,1.18,1.18,0,0,1,.23-.39c.14-.17.26-.41.46-.47.43-.12.77-.41,1.29-.37a1.9,1.9,0,0,0,1.1-.19,3.5,3.5,0,0,1,1.07-.08c.35,0,.73.06,1-.21.1-.09.37,0,.56-.06a3.7,3.7,0,0,0,1.65-.23h.12l2.78-.32A15.38,15.38,0,0,0,21,13.39a9.62,9.62,0,0,1,1.31-.19C23,13.11,23.6,13,24.34,12.87Z"/><path class="cls-2" d="M75.1,42.33a3.75,3.75,0,0,1-.5,1,1.73,1.73,0,0,1-.38.43,3.39,3.39,0,0,1-2.35.6H3.22a4.65,4.65,0,0,1-2.44-.65H.68c-.05-.35-.54-.55-.47-1,0-.11-.17-.24-.19-.36a1.82,1.82,0,0,1,0-.57c0-.09.16-.17.15-.25,0-.57.45-.93.85-1.28a2,2,0,0,1,1.07-.38q.92-.07,1.83-.06H72.56a2.49,2.49,0,0,1,2,1A1.74,1.74,0,0,1,75.1,42.33Z"/><path class="cls-3" d="M83,52.73a4.51,4.51,0,0,1-.54.53,2.25,2.25,0,0,1-.7.33,4.5,4.5,0,0,1-1.26.27h-42a2.58,2.58,0,0,1-1.77-.66c-.28-.24-.59-.46-.88-.7h-.06a2.4,2.4,0,0,0-.35-1,1.46,1.46,0,0,1,.19-.44c.07-.15.07-.08.07-.11a1.26,1.26,0,0,1,.42-1,1.59,1.59,0,0,1,.61-.48,14.11,14.11,0,0,1,1.54-.55,2.44,2.44,0,0,1,.54,0H80.44a3,3,0,0,1,.85.21,3.79,3.79,0,0,1,1.06.54c.29.22.55.46.82.69v.16c.08.26.15.51.24.76A4.35,4.35,0,0,1,83,52.73Z"/><path class="cls-4" d="M56,33.41c.1.45-.31.73-.56,1a3,3,0,0,1-1.79.72,20.52,20.52,0,0,1-4.7.18H12.48A8.75,8.75,0,0,1,10.15,35a1.77,1.77,0,0,1-1.29-.88,6.55,6.55,0,0,1-.31-.88.91.91,0,0,0-.11-.12.43.43,0,0,1-.08-.59l.08-.08c.06,0,.16-.13.14-.19-.12-.4.27-.66.44-1s.42-.32.67-.44a7.46,7.46,0,0,1,3.32-.2H52.67a5.09,5.09,0,0,1,2.48.61c.23.12.38.44.56.63C56.23,32.37,55.92,32.9,56,33.41Z"/><path class="cls-5" d="M29.29,26.6c.08-.29.16-.48.19-.67a5.59,5.59,0,0,0,0-.71c0-.24-.05-.45.25-.6V24.5a11.73,11.73,0,0,1,.42-1.43,4.28,4.28,0,0,1,.6-.86c.11-.16.23-.32.33-.48a9,9,0,0,1,1.41-1.55,13.34,13.34,0,0,1,2-1.41,9.71,9.71,0,0,1,1.83-.83A18.88,18.88,0,0,1,40,17.06a9.91,9.91,0,0,1,2.37-.14c.85.1,1.7.24,2.53.42H45c.55.13,1.1.22,1.63.38a9.88,9.88,0,0,0,1,.45,5.1,5.1,0,0,1,1.36.68,5.68,5.68,0,0,1,1,.68c.15.11.28.23.42.34.41.34.84.65,1.23,1a3.62,3.62,0,0,1,.44.59c.2.26.41.5.61.75a.14.14,0,0,1,0,.09c.13.3.16.67.41.88s.16.74.39,1c.44.54.22,1.11.32,1.66,0,.08.06.15.08.22s.18.39.1.48a.65.65,0,0,1-.7.34,3.64,3.64,0,0,0-.66,0H30.28A1,1,0,0,1,29.29,26.6Z"/><path class="cls-6" d="M29.1,51.4a1.88,1.88,0,0,1-.54,1.25c-.12.12-.17.31-.3.41a4.18,4.18,0,0,1-1.76.68,5.26,5.26,0,0,1-1.12.12h-14a2.84,2.84,0,0,1-1.44-.4,4.24,4.24,0,0,1-.72-.4c-.25-.24-.55-.48-.57-.84s.05-.46-.26-.63c-.07,0,0-.29.08-.44s.16-.13.15-.18A1.3,1.3,0,0,1,9,50a1.88,1.88,0,0,1,1.27-.77,4.48,4.48,0,0,0,.52-.16,2.59,2.59,0,0,1,.61-.1H25.83a4.4,4.4,0,0,1,2.15.62,1.48,1.48,0,0,1,.87,1.21C28.86,51,29.12,51.18,29.1,51.4Z"/><path class="cls-7" d="M83.43,33.06a5.84,5.84,0,0,0-.2.59,1.29,1.29,0,0,1-.61.83,4,4,0,0,1-2.51.66H65.3a2.74,2.74,0,0,1-1.7-.69c-.38-.33-.69-.64-.65-1.12,0-.1-.14-.2-.18-.25a1.85,1.85,0,0,0,.18-.65,1.47,1.47,0,0,1,.55-1,4.13,4.13,0,0,1,1-.66,1.14,1.14,0,0,1,.4-.08H80.39a4.31,4.31,0,0,1,1.84.35,1,1,0,0,1,.41.31c.2.31.64.52.6.94,0,.14.13.28.17.43A.78.78,0,0,1,83.43,33.06Z"/></g></g></g></g></svg>