<?xml version="1.0" encoding="utf-8"?>
<!-- Generator: Adobe Illustrator 26.0.3, SVG Export Plug-In . SVG Version: 6.00 Build 0)  -->
<svg version="1.1" id="Layer_1" xmlns="http://www.w3.org/2000/svg" xmlns:xlink="http://www.w3.org/1999/xlink" x="0px" y="0px"
	 viewBox="0 0 269.6 56.5" style="enable-background:new 0 0 269.6 56.5;" xml:space="preserve">
<style type="text/css">
	.st0{fill:#231F20;}
	.st1{fill:url(#SVGID_1_);}
	.st2{fill:url(#SVGID_00000108311489077683511920000001445968789963155390_);}
	.st3{fill:url(#SVGID_00000072977311336675554200000004228704140983423908_);}
	.st4{fill:url(#SVGID_00000023979784011191741510000005431149241260271038_);}
	.st5{fill:url(#SVGID_00000044150673108551030670000010247731678350629270_);}
	.st6{fill:url(#SVGID_00000003103473322842589570000000898586401813002662_);}
	.st7{fill:url(#SVGID_00000146473575691304580440000011449901225036517017_);}
</style>
<g id="Layer_2_00000007394670407914244330000011148079630380812223_">
	<g id="Layer_1-2">
		<path class="st0" d="M224.8,48.2c-1.1,0-2.3-0.1-3.4-0.3c-1-0.2-2-0.6-3-1l0.3-2.5c1,0.5,2.1,0.8,3.2,1.1c1,0.3,2.1,0.4,3.1,0.4
			c1.4,0.1,2.8-0.3,4-1.1c0.9-0.9,1.4-2.1,1.3-3.3c0.1-1.7-0.8-3.4-2.3-4.3l-5.3-3.2c-1.1-0.6-2.1-1.5-2.8-2.6
			c-0.7-1.1-1-2.4-0.9-3.7c-0.1-1.8,0.5-3.7,1.7-5c1.3-1.2,3.1-1.9,4.9-1.7c1.3,0,2.6,0.2,3.8,0.8c1.2,0.6,2.3,1.4,3.1,2.4l-1.4,1.7
			c-0.8-0.8-1.7-1.5-2.8-2c-0.9-0.4-1.8-0.6-2.7-0.6c-1.2-0.1-2.4,0.3-3.3,1.1c-0.8,0.9-1.2,2.1-1.1,3.4c0,0.8,0.2,1.7,0.6,2.4
			c0.5,0.7,1.1,1.3,1.8,1.7l4.8,2.9c1.2,0.7,2.3,1.7,3.1,2.9c0.7,1.2,1.1,2.6,1,4c0.1,1.9-0.6,3.7-1.9,5
			C229.2,47.7,227.3,48.2,224.8,48.2z"/>
		<path class="st0" d="M236.8,56.5V28.1h1.8l0.3,4.6v23.8H236.8z M244.3,48.2c-1.3,0.1-2.6-0.4-3.6-1.2c-0.9-0.9-1.5-2.1-1.6-3.4
			h-1.3l1.1-5.3c-0.1,2,0.3,4,1.3,5.7c1.4,2.1,4.2,2.6,6.2,1.2c0.5-0.3,0.9-0.7,1.2-1.2c0.9-1.8,1.4-3.8,1.2-5.8
			c0.1-2.1-0.3-4.2-1.2-6.1c-0.7-1.3-2.2-2.1-3.7-2.1c-1.5-0.1-2.9,0.7-3.7,2c-1,1.8-1.4,3.8-1.3,5.8l-1-5.5h1.1
			c0.2-2.7,2.4-4.7,5.1-4.5c0,0,0.1,0,0.1,0c2-0.1,3.9,0.9,5,2.6c1.1,1.8,1.7,4.4,1.7,7.8c0,3.3-0.6,5.8-1.7,7.5
			C248.2,47.4,246.3,48.3,244.3,48.2z"/>
		<path class="st0" d="M258.7,48.2c-1.4,0.1-2.8-0.4-3.9-1.4c-1-1.1-1.5-2.5-1.4-3.9c-0.1-1.8,0.6-3.5,1.8-4.7
			c1.6-1.2,3.5-1.7,5.4-1.6c1,0,2.1,0.1,3.1,0.2c0.8,0.1,1.5,0.3,2.2,0.6l-0.3,1.9c-0.8-0.3-1.6-0.4-2.4-0.5c-0.9,0-1.8-0.1-2.6-0.1
			c-3.4,0-5.2,1.3-5.2,4c-0.1,0.9,0.3,1.8,0.9,2.4c0.7,0.6,1.6,0.9,2.5,0.8c1,0,2.1-0.2,3-0.7c0.8-0.4,1.5-1.1,2-1.9
			c0.5-0.8,0.7-1.7,0.7-2.6v-2.3l1.1,5.1h-1.3l0.3-0.5c0,0.9-0.3,1.9-0.9,2.6c-0.6,0.8-1.3,1.4-2.1,1.8
			C260.8,48.1,259.7,48.3,258.7,48.2z M265.1,48.1l-0.2-7.2l-0.2-0.2v-4.5c0.1-1.6-0.4-3.2-1.4-4.4c-1.2-1-2.7-1.5-4.3-1.4l-3.5-0.1
			l0.3-2.3l3.1,0c2.7,0.1,4.7,0.8,5.9,2.1c1.2,1.4,1.9,3.5,1.9,6.4v9.2l2.8,0.3v1.8L265.1,48.1z"/>
		<path class="st0" d="M198,48.2c-1.7,0.1-3.3-0.6-4.5-1.8c-1.2-1.4-1.7-3.2-1.6-5c-0.1-1.8,0.5-3.5,1.5-4.9c1-1.3,2.5-2.2,4.2-2.4
			l1.1,1.5c-1.3,0.3-2.6,1-3.5,2c-0.8,1-1.2,2.3-1.2,3.7c-0.1,1.3,0.3,2.5,1.2,3.5c0.8,0.9,2,1.3,3.2,1.2c2.3,0,4.3-1.2,5.3-3.2
			c1.3-2.2,1.9-5.2,1.9-9.2h2c0,4.7-0.8,8.3-2.5,10.8C203.6,46.9,200.9,48.3,198,48.2z M206.9,47.9l-10.1-12.4c-0.8-1-1.5-2.2-2-3.4
			c-0.5-1.1-0.7-2.4-0.7-3.6c-0.1-2,0.5-3.9,1.6-5.5c1.2-1.3,2.8-2,4.6-1.9l0.1,2.3c-1.2,0-2.3,0.5-3,1.4c-0.8,1.1-1.2,2.5-1.1,3.9
			c0,1,0.2,1.9,0.6,2.8c0.4,0.9,0.9,1.8,1.6,2.6l11.2,14L206.9,47.9z M203.9,26.9c0.1-1-0.3-2-0.9-2.7c-0.7-0.7-1.6-1-2.6-1
			l-0.1-2.2c1.6-0.1,3.1,0.5,4.2,1.5c1,1.2,1.6,2.8,1.5,4.4H203.9z"/>
		<path class="st0" d="M95.8,46.7V20.2h2.1v26.5H95.8z M96.4,34.7v-2.4h12.6v2.3L96.4,34.7z M107.6,46.7V20.2h2.1v26.5H107.6z"/>
		<path class="st0" d="M120.5,47c-2.1,0.1-4-0.9-5.2-2.7c-1.2-1.8-1.8-4.3-1.8-7.6s0.6-5.8,1.8-7.6c2-2.9,6-3.5,8.8-1.5
			c0.6,0.4,1.1,0.9,1.5,1.5c1.2,1.8,1.8,4.3,1.8,7.6c0,3.3-0.6,5.8-1.8,7.6C124.5,46.1,122.6,47.1,120.5,47z M120.5,44.7
			c1.5,0,2.9-0.8,3.6-2.1c0.9-1.8,1.4-3.8,1.3-5.9c0.1-2-0.3-4.1-1.3-5.9c-1.2-2-3.7-2.6-5.7-1.5c-0.6,0.4-1.1,0.9-1.5,1.5
			c-0.9,1.8-1.4,3.8-1.3,5.9c-0.1,2,0.3,4.1,1.3,5.9C117.6,43.9,119,44.7,120.5,44.7L120.5,44.7z"/>
		<path class="st0" d="M130.3,29.2v-2.3h14.5v2.3H130.3z M135,37.3V20.9h2.1v16.4H135z M141.3,47c-1.8,0.1-3.6-0.6-4.7-2
			c-1-1.3-1.5-3.3-1.5-6v-3.2h2.1V39c-0.1,1.5,0.3,3,1.1,4.3c0.8,1,2.1,1.5,3.4,1.4c0.6,0,1.2,0,1.8-0.1c0.6-0.1,1.2-0.2,1.8-0.3
			l0.2,2.3c-0.7,0.2-1.4,0.3-2,0.3C142.7,47,142,47,141.3,47z"/>
		<path class="st0" d="M157.6,47c-2.4,0.1-4.8-0.9-6.4-2.7c-1.5-1.8-2.2-4.4-2.2-7.7c0-3.2,0.6-5.7,1.9-7.4c1.2-1.7,3.2-2.7,5.3-2.6
			c2-0.1,3.8,0.8,5,2.4c1.2,1.6,1.8,3.8,1.8,6.8c0,0.6,0,1.3-0.1,1.9h-12.2v-2.1h10.3c0.1-1.8-0.3-3.5-1.2-5
			c-0.8-1.1-2.1-1.8-3.5-1.8c-1.6-0.1-3,0.7-3.9,2c-1,1.8-1.5,3.8-1.3,5.8c-0.1,2.2,0.5,4.3,1.8,6.1c1.3,1.5,3.2,2.2,5.1,2.1
			c0.7,0,1.3,0,2-0.1c0.7-0.1,1.3-0.2,2-0.4l0.3,2.3c-0.7,0.2-1.5,0.3-2.3,0.4C159.1,47,158.3,47,157.6,47z"/>
		<path class="st0" d="M166.3,20.9v-2.3h5.5v2.3H166.3z M177.1,47c-1.6,0.1-3.2-0.5-4.2-1.8c-0.9-1.2-1.4-3-1.4-5.5V18.7h2.1v21.1
			c0,0.9,0.1,1.9,0.4,2.8c0.2,0.7,0.7,1.3,1.3,1.6c0.7,0.4,1.5,0.6,2.3,0.5c1.1,0,2.2-0.2,3.2-0.6l0.2,2.3c-0.7,0.2-1.3,0.4-2,0.5
			C178.4,47,177.7,47,177.1,47z"/>
		
			<linearGradient id="SVGID_1_" gradientUnits="userSpaceOnUse" x1="41.6958" y1="58.0111" x2="41.6958" y2="31.1035" gradientTransform="matrix(1 0 0 -1 0 58)">
			<stop  offset="0" style="stop-color:#FFF33B"/>
			<stop  offset="4.000000e-02" style="stop-color:#FEE72E"/>
			<stop  offset="0.12" style="stop-color:#FED51B"/>
			<stop  offset="0.2" style="stop-color:#FDCA10"/>
			<stop  offset="0.28" style="stop-color:#FDC70C"/>
			<stop  offset="0.67" style="stop-color:#F3903F"/>
			<stop  offset="0.89" style="stop-color:#ED683C"/>
			<stop  offset="1" style="stop-color:#E93E3A"/>
		</linearGradient>
		<path class="st1" d="M24.3,12.9c0.1-0.7,0.2-1.4,0.4-2.1c0.2-0.5,0.1-1.1,0.4-1.6c0.2-0.5,0.3-1,0.3-1.5c0.1-0.1,0.1-0.3,0.2-0.4
			c0.1-0.1,0.1-0.2,0.1-0.3c0-0.3,0-0.6,0-0.9c0.1-0.2,0.1-0.4,0.2-0.6C26,5.4,26,5.3,26,5.2c0-0.2,0-0.5,0-0.7
			c0.1-0.3,0.2-0.6,0.3-0.8c0.1-0.3,0.1-0.5,0.1-0.8c0-0.3,0-0.6,0.3-0.9c0.1-0.1,0.1-0.3,0.1-0.4c0-0.6,0.5-1,1.2-1.2
			c0.1,0,0.1,0,0.2-0.1C28.3,0,28.7-0.1,29,0.1c0.1,0,0.2,0.1,0.2,0.1c0.4,0.1,0.7,0.2,1,0.5C30.5,0.9,30.8,1,31,1.1
			c0.4,0.2,0.8,0.5,1.2,0.8c0.2,0.1,0.4,0.2,0.6,0.3s0.5,0.3,0.8,0.5s0.6,0.2,0.8,0.4c0.4,0.2,0.8,0.5,1.3,0.7
			c0.2,0.1,0.6,0.2,0.8,0.4c0.4,0.3,1,0.3,1.3,0.8c0.1,0.1,0.3,0.2,0.5,0.3c0.5,0.2,1,0.4,1.4,0.7s1,0.7,1.6,0.9
			c0.2,0.1,0.4,0.2,0.6,0c0.2-0.2,0.4-0.3,0.6-0.4l1.5-0.8c0.2-0.1,0.5-0.2,0.7-0.3s0.7-0.4,1.1-0.6l1.5-0.8
			c0.4-0.2,0.8-0.5,1.2-0.7s0.8-0.4,1.2-0.7l0.5-0.3C50.9,2,51.5,1.7,52,1.4c0.5-0.4,1-0.7,1.6-1C54,0.1,54.5,0,55,0
			c0.6,0.1,1.1,0.5,1.5,0.9c0.4,0.5,0.1,1,0.3,1.4s0.1,1,0.4,1.4s0.2,1,0.3,1.4c0.1,0.1,0.1,0.3,0.2,0.4c0.1,0.2,0.1,0.3,0.1,0.5
			c0,0.4,0.1,0.8,0.2,1.2c0.2,0.3,0.1,0.8,0.1,1.2c0.1,0.2,0.1,0.4,0.2,0.5c0,0.1,0.1,0.2,0.1,0.3c0,0.3,0,0.6,0,1
			c0,0.2,0,0.4,0.2,0.5c0,0,0,0.1,0,0.1c0,0,0,0,0,0.1c-0.1,0.7,0.1,1.4,0.4,2h0.1c0.9,0.2,1.9,0.3,2.8,0.3c0.6,0.4,1.5,0.1,2.1,0.4
			h0.1l2.9,0.3c0.3,0,0.6,0,0.8,0.2c0,0.1,0.2,0,0.3,0.1c0.4,0,0.9,0,1.3,0.1c0.2,0,0.4,0.1,0.6,0.2c0.1,0,0.3,0.1,0.4,0.1
			c0.5,0,1.1,0,1.6,0.2c0.3,0.1,0.6,0.1,0.9,0.1c0.5,0,1,0.2,1.4,0.5c0.4,0.2,0.6,0.7,0.6,1.2c-0.1,0.3-0.3,0.6-0.5,0.9
			c-0.2,0.2-0.3,0.4-0.5,0.6c-0.2,0.2-0.3,0.4-0.5,0.6s-0.1,0.1-0.1,0.1c0,0.3-0.4,0.5-0.6,0.7s-0.3,0.4-0.5,0.6s-0.3,0.4-0.5,0.6
			s-0.3,0.5-0.6,0.7s-0.6,0.6-0.9,1s-0.3,0.4-0.5,0.6s-0.4,0.4-0.6,0.7s-0.5,0.6-0.8,0.9c-0.1,0.1-0.2,0.2-0.3,0.2
			c-0.2,0.3-0.5,0.6-0.8,1c-0.4,0.4-0.5,0.9-1.1,1.1c-0.2,0.1-0.4,0.1-0.5,0.1h-6.4c-0.3,0-0.6,0.1-0.8-0.2c0-0.1-0.1-0.2-0.1-0.3
			c0-0.5,0-0.9-0.1-1.4c0-0.5-0.2-1.1-0.4-1.6c-0.2-0.3-0.2-0.6-0.3-0.9c-0.2-0.3-0.3-0.7-0.5-1c0-0.1-0.1-0.1-0.1-0.2
			c-0.1-0.3-0.3-0.6-0.6-0.9c-0.1,0-0.1-0.1-0.1-0.2c0-0.3-0.3-0.5-0.5-0.6c0,0-0.1,0-0.1-0.1c-0.3-0.6-0.8-1.1-1.4-1.5
			c-0.3-0.2-0.5-0.5-0.8-0.7s-0.7-0.6-1.2-0.8c-0.3-0.2-0.6-0.4-0.9-0.6c-0.5-0.3-1-0.5-1.5-0.8l-1-0.5l-0.2-0.1
			c-0.5-0.2-1.1-0.4-1.6-0.5s-1.2-0.2-1.8-0.3c-0.5,0-1-0.1-1.4-0.2c-0.1-0.1-0.3-0.1-0.4-0.1c-1.2,0-2.5,0-3.7,0
			c-0.2,0-0.4,0.1-0.5,0.2c-0.2,0-0.4,0.1-0.6,0.1c-0.8,0-1.6,0.2-2.3,0.5h-0.2l-1.6,0.5l0,0c-0.7,0-1.2,0.5-1.8,0.7
			c-0.4,0.2-0.8,0.4-1.2,0.7c-0.2,0.1-0.5,0.2-0.7,0.4s-0.7,0.4-1,0.7S29.3,17.8,29,18s-0.3,0.4-0.5,0.5L28.1,19
			c-0.3,0.3-0.6,0.6-0.9,1c-0.1,0.2-0.3,0.3-0.4,0.5c-0.2,0.3-0.3,0.6-0.4,0.9c-0.1,0.1-0.1,0.2-0.2,0.3c0,0-0.1,0.1-0.1,0.1
			c-0.1,0.4-0.2,0.9-0.4,1.2c-0.3,0.4-0.1,0.9-0.4,1.3c-0.5,0.7-0.2,1.4-0.3,2c-0.1,0.4-0.3,0.6-0.8,0.6c-2.2,0-4.5,0-6.7,0
			c-0.3,0-0.6-0.1-0.8-0.4c-0.4-0.3-0.7-0.7-1-1.1c-0.2-0.3-0.6-0.5-0.7-0.8c-0.2-0.4-0.6-0.7-0.8-1.1c-0.3-0.5-0.7-0.9-1.1-1.3
			c-0.3-0.2-0.3-0.5-0.6-0.8c-0.4-0.3-0.7-0.6-1-1c-0.1-0.1-0.2-0.3-0.3-0.4c-0.3-0.4-0.5-0.8-0.8-1.1c-0.3-0.3-0.5-0.6-0.8-0.9
			c-0.3-0.4-1-0.7-0.9-1.3c0-0.1-0.1-0.1-0.1-0.2c0-0.2,0-0.3,0-0.5c0-0.1,0.1-0.3,0.2-0.4c0.1-0.2,0.3-0.4,0.5-0.5
			c0.4-0.1,0.8-0.4,1.3-0.4c0.4,0,0.8,0,1.1-0.2c0.4-0.1,0.7-0.1,1.1-0.1c0.4,0,0.7,0.1,1-0.2c0.1-0.1,0.4-0.1,0.6-0.1
			c0.6,0.1,1.1,0,1.6-0.2c0,0,0.1,0,0.1,0l2.8-0.3c0.8-0.1,1.6-0.2,2.3-0.4c0.4-0.1,0.9-0.2,1.3-0.2C22.9,13.1,23.6,13,24.3,12.9z"
			/>
		
			<linearGradient id="SVGID_00000084521904139302104400000010284249389485196674_" gradientUnits="userSpaceOnUse" x1="37.5461" y1="1.5" x2="37.5461" y2="28.86" gradientTransform="matrix(1 0 0 -1 0 58)">
			<stop  offset="0" style="stop-color:#2484C6"/>
			<stop  offset="1" style="stop-color:#F9ED32"/>
		</linearGradient>
		<path style="fill:url(#SVGID_00000084521904139302104400000010284249389485196674_);" d="M75.1,42.3c-0.1,0.4-0.3,0.7-0.5,1
			c-0.1,0.2-0.2,0.3-0.4,0.4c-0.7,0.5-1.5,0.7-2.3,0.6c-22.9,0-45.8,0-68.7,0c-0.9,0-1.7-0.2-2.4-0.7c0,0-0.1,0-0.1,0
			c-0.1-0.3-0.5-0.5-0.5-1c0-0.1-0.2-0.2-0.2-0.4c0-0.2,0-0.4,0-0.6c0-0.1,0.2-0.2,0.2-0.2c0-0.6,0.4-0.9,0.9-1.3
			c0.3-0.2,0.7-0.4,1.1-0.4c0.6-0.1,1.2-0.1,1.8-0.1h66.5c0.7,0,1.4,0,2.2,0c0.8,0,1.5,0.4,2,1C75,41.2,75.2,41.8,75.1,42.3z"/>
		
			<linearGradient id="SVGID_00000124857015131632558340000013325763315283027130_" gradientUnits="userSpaceOnUse" x1="59.44" y1="1.67" x2="59.44" y2="28.93" gradientTransform="matrix(1 0 0 -1 0 58)">
			<stop  offset="0" style="stop-color:#2484C6"/>
			<stop  offset="1" style="stop-color:#F9ED32"/>
		</linearGradient>
		<path style="fill:url(#SVGID_00000124857015131632558340000013325763315283027130_);" d="M83,52.7c-0.2,0.2-0.3,0.4-0.5,0.5
			c-0.2,0.1-0.5,0.3-0.7,0.3c-0.4,0.1-0.8,0.2-1.3,0.3h-42c-0.7,0-1.3-0.2-1.8-0.7c-0.3-0.2-0.6-0.5-0.9-0.7h-0.1
			c0-0.4-0.2-0.7-0.3-1c0-0.1,0.1-0.3,0.2-0.4s0.1-0.1,0.1-0.1c0-0.4,0.1-0.7,0.4-1c0.2-0.2,0.4-0.4,0.6-0.5c0.5-0.2,1-0.4,1.5-0.5
			c0.2,0,0.4,0,0.5,0h41.6c0.3,0,0.6,0.1,0.8,0.2c0.4,0.1,0.7,0.3,1.1,0.5c0.3,0.2,0.6,0.5,0.8,0.7c0,0,0,0.1,0,0.2
			c0.1,0.3,0.2,0.5,0.2,0.8C83.4,51.8,83.2,52.3,83,52.7z"/>
		
			<linearGradient id="SVGID_00000137106467900916556550000011413956009904093353_" gradientUnits="userSpaceOnUse" x1="32.1394" y1="1.45" x2="32.1394" y2="29.02" gradientTransform="matrix(1 0 0 -1 0 58)">
			<stop  offset="0" style="stop-color:#2484C6"/>
			<stop  offset="1" style="stop-color:#F9ED32"/>
		</linearGradient>
		<path style="fill:url(#SVGID_00000137106467900916556550000011413956009904093353_);" d="M56,33.4c0.1,0.5-0.3,0.7-0.6,1
			c-0.5,0.4-1.1,0.7-1.8,0.7c-1.6,0.2-3.1,0.3-4.7,0.2c-12.2,0-24.3,0-36.5,0c-0.8,0-1.6-0.1-2.3-0.3c-0.5-0.1-1-0.4-1.3-0.9
			c-0.1-0.3-0.2-0.6-0.3-0.9c0,0-0.1-0.1-0.1-0.1c-0.2-0.1-0.2-0.4-0.1-0.6c0,0,0.1-0.1,0.1-0.1c0.1,0,0.2-0.1,0.1-0.2
			c-0.1-0.4,0.3-0.7,0.4-1s0.4-0.3,0.7-0.4c1.1-0.3,2.2-0.4,3.3-0.2c6.4,0,12.7,0,19,0c6.9,0,13.8,0,20.7,0c0.9,0,1.7,0.2,2.5,0.6
			c0.2,0.1,0.4,0.4,0.6,0.6C56.2,32.4,55.9,32.9,56,33.4z"/>
		
			<linearGradient id="SVGID_00000041295018300171360570000017680269374871083668_" gradientUnits="userSpaceOnUse" x1="41.6561" y1="41.108" x2="41.6561" y2="31.078" gradientTransform="matrix(1 0 0 -1 0 58)">
			<stop  offset="0" style="stop-color:#FFF33B"/>
			<stop  offset="4.000000e-02" style="stop-color:#FEE72E"/>
			<stop  offset="0.12" style="stop-color:#FED51B"/>
			<stop  offset="0.2" style="stop-color:#FDCA10"/>
			<stop  offset="0.28" style="stop-color:#FDC70C"/>
			<stop  offset="0.67" style="stop-color:#F3903F"/>
			<stop  offset="0.89" style="stop-color:#ED683C"/>
			<stop  offset="1" style="stop-color:#E93E3A"/>
		</linearGradient>
		<path style="fill:url(#SVGID_00000041295018300171360570000017680269374871083668_);" d="M29.3,26.6c0.1-0.3,0.2-0.5,0.2-0.7
			s0-0.5,0-0.7s0-0.5,0.2-0.6c0,0,0-0.1,0-0.1c0.1-0.5,0.2-1,0.4-1.4c0.2-0.3,0.4-0.6,0.6-0.9c0.1-0.2,0.2-0.3,0.3-0.5
			c0.4-0.6,0.9-1.1,1.4-1.5c0.6-0.5,1.3-1,2-1.4c0.6-0.3,1.2-0.6,1.8-0.8c1.2-0.4,2.4-0.7,3.7-0.9c0.8-0.1,1.6-0.2,2.4-0.1
			c0.9,0.1,1.7,0.2,2.5,0.4H45c0.5,0.1,1.1,0.2,1.6,0.4c0.3,0.2,0.7,0.3,1,0.5c0.5,0.2,0.9,0.4,1.4,0.7c0.4,0.2,0.7,0.4,1,0.7
			c0.2,0.1,0.3,0.2,0.4,0.3c0.4,0.3,0.8,0.6,1.2,1c0.2,0.2,0.3,0.4,0.4,0.6c0.2,0.3,0.4,0.5,0.6,0.8c0,0,0,0.1,0,0.1
			c0.1,0.3,0.2,0.7,0.4,0.9s0.2,0.7,0.4,1c0.4,0.5,0.2,1.1,0.3,1.7c0,0.1,0.1,0.1,0.1,0.2s0.2,0.4,0.1,0.5s-0.3,0.5-0.7,0.3
			c-0.2,0-0.4,0-0.7,0H30.4c0,0-0.1,0-0.1,0C29.9,27,29.5,26.9,29.3,26.6z"/>
		
			<linearGradient id="SVGID_00000154401059622749872700000010412883908422622376_" gradientUnits="userSpaceOnUse" x1="18.6962" y1="1.44" x2="18.6962" y2="28.9" gradientTransform="matrix(1 0 0 -1 0 58)">
			<stop  offset="0" style="stop-color:#2484C6"/>
			<stop  offset="1" style="stop-color:#F9ED32"/>
		</linearGradient>
		<path style="fill:url(#SVGID_00000154401059622749872700000010412883908422622376_);" d="M29.1,51.4c0,0.5-0.2,0.9-0.5,1.2
			c-0.1,0.1-0.2,0.3-0.3,0.4c-0.5,0.4-1.1,0.6-1.8,0.7c-0.4,0.1-0.7,0.1-1.1,0.1h-6.9c-2.4,0-4.8,0-7.2,0c-0.5,0-1-0.1-1.4-0.4
			c-0.3-0.1-0.5-0.2-0.7-0.4c-0.2-0.2-0.6-0.5-0.6-0.8s0.1-0.5-0.3-0.6c-0.1,0,0-0.3,0.1-0.4S8.6,51,8.6,51c0-0.4,0.1-0.7,0.4-1
			c0.3-0.4,0.8-0.7,1.3-0.8c0.2,0,0.3-0.1,0.5-0.2c0.2-0.1,0.4-0.1,0.6-0.1h14.4c0.8,0,1.5,0.2,2.1,0.6c0.5,0.2,0.8,0.7,0.9,1.2
			C28.9,50.9,29.1,51.2,29.1,51.4z"/>
		
			<linearGradient id="SVGID_00000147916225249656018870000013925379252801387932_" gradientUnits="userSpaceOnUse" x1="73.0932" y1="1.67" x2="73.0932" y2="28.88" gradientTransform="matrix(1 0 0 -1 0 58)">
			<stop  offset="0" style="stop-color:#2484C6"/>
			<stop  offset="1" style="stop-color:#F9ED32"/>
		</linearGradient>
		<path style="fill:url(#SVGID_00000147916225249656018870000013925379252801387932_);" d="M83.4,33c-0.1,0.2-0.1,0.4-0.2,0.6
			c-0.1,0.3-0.3,0.6-0.6,0.8c-0.7,0.5-1.6,0.7-2.5,0.7c-4.6,0-9.3,0-13.9,0c-0.3,0-0.6,0-0.9,0c-0.6,0-1.2-0.3-1.7-0.7
			c-0.4-0.3-0.7-0.6-0.7-1.1c0-0.1-0.1-0.2-0.2-0.2c0.1-0.2,0.2-0.4,0.2-0.7c0-0.4,0.3-0.7,0.5-1c0.3-0.3,0.6-0.5,1-0.7
			c0.1-0.1,0.3-0.1,0.4-0.1h15.5c0.6,0,1.3,0.1,1.8,0.4c0.2,0.1,0.3,0.2,0.4,0.3c0.2,0.3,0.6,0.5,0.6,0.9c0,0.1,0.1,0.3,0.2,0.4
			C83.4,32.8,83.4,32.9,83.4,33z"/>
	</g>
</g>
</svg>
