<svg xmlns="http://www.w3.org/2000/svg" xmlns:xlink="http://www.w3.org/1999/xlink" viewBox="0 0 269.58 56.47"><defs><style>.cls-1{fill:#fff;}.cls-2{fill:url(#Orange_Yellow);}.cls-3{fill:url(#linear-gradient);}.cls-4{fill:url(#linear-gradient-2);}.cls-5{fill:url(#linear-gradient-3);}.cls-6{fill:url(#Orange_Yellow-2);}.cls-7{fill:url(#linear-gradient-4);}.cls-8{fill:url(#linear-gradient-5);}</style><linearGradient id="Orange_Yellow" x1="41.73" x2="41.73" y2="26.91" gradientUnits="userSpaceOnUse"><stop offset="0" stop-color="#fff33b"/><stop offset="0.04" stop-color="#fee72e"/><stop offset="0.12" stop-color="#fed51b"/><stop offset="0.2" stop-color="#fdca10"/><stop offset="0.28" stop-color="#fdc70c"/><stop offset="0.67" stop-color="#f3903f"/><stop offset="0.89" stop-color="#ed683c"/><stop offset="1" stop-color="#e93e3a"/></linearGradient><linearGradient id="linear-gradient" x1="37.56" y1="56.5" x2="37.56" y2="29.14" gradientUnits="userSpaceOnUse"><stop offset="0" stop-color="#2484c6"/><stop offset="1" stop-color="#f9ed32"/></linearGradient><linearGradient id="linear-gradient-2" x1="59.46" y1="56.33" x2="59.46" y2="29.07" xlink:href="#linear-gradient"/><linearGradient id="linear-gradient-3" x1="32.14" y1="56.55" x2="32.14" y2="28.98" xlink:href="#linear-gradient"/><linearGradient id="Orange_Yellow-2" x1="41.71" y1="16.89" x2="41.71" y2="26.92" xlink:href="#Orange_Yellow"/><linearGradient id="linear-gradient-4" x1="18.7" y1="56.56" x2="18.7" y2="29.1" xlink:href="#linear-gradient"/><linearGradient id="linear-gradient-5" x1="73.1" y1="56.33" x2="73.1" y2="29.12" xlink:href="#linear-gradient"/></defs><g id="Layer_2" data-name="Layer 2"><g id="Layer_1-2" data-name="Layer 1"><path class="cls-1" d="M224.75,48.25a16.53,16.53,0,0,1-3.37-.33,13.72,13.72,0,0,1-3-1l.28-2.46a19.39,19.39,0,0,0,3.22,1.13,12.5,12.5,0,0,0,3.1.4,6.08,6.08,0,0,0,4-1.11,4.09,4.09,0,0,0,1.32-3.34A4.67,4.67,0,0,0,228,37.28l-5.27-3.23a8,8,0,0,1-2.76-2.59,6.78,6.78,0,0,1-.94-3.68,7,7,0,0,1,1.66-5.05,6.5,6.5,0,0,1,4.9-1.73,9,9,0,0,1,3.81.78,9.32,9.32,0,0,1,3.13,2.41l-1.41,1.7a11.09,11.09,0,0,0-2.77-2,6.31,6.31,0,0,0-2.74-.64,4.6,4.6,0,0,0-3.34,1.11,4.48,4.48,0,0,0-1.13,3.35,4.23,4.23,0,0,0,.61,2.36,5.37,5.37,0,0,0,1.79,1.67l4.8,2.9a8.79,8.79,0,0,1,3.07,2.9,7.39,7.39,0,0,1,1,4,6.37,6.37,0,0,1-1.91,5Q228.59,48.25,224.75,48.25Z"/><path class="cls-1" d="M236.81,56.47V28.09h1.77l.31,4.56V56.47Zm7.52-8.22A5,5,0,0,1,240.72,47a5.75,5.75,0,0,1-1.63-3.43h-1.33l1.13-5.28A10.73,10.73,0,0,0,240.15,44a4.49,4.49,0,0,0,7.44,0,11,11,0,0,0,1.25-5.84,12,12,0,0,0-1.25-6.12,4.07,4.07,0,0,0-3.7-2.07,4.16,4.16,0,0,0-3.73,2,10.66,10.66,0,0,0-1.27,5.77l-1-5.45H239a4.84,4.84,0,0,1,5.23-4.54,5.53,5.53,0,0,1,5,2.65q1.69,2.65,1.69,7.8,0,5-1.67,7.53A5.53,5.53,0,0,1,244.33,48.25Z"/><path class="cls-1" d="M258.72,48.25a5.17,5.17,0,0,1-3.87-1.39,5.35,5.35,0,0,1-1.37-3.93,5.9,5.9,0,0,1,1.84-4.7,8.11,8.11,0,0,1,5.43-1.59,24.08,24.08,0,0,1,3.07.19,7.78,7.78,0,0,1,2.24.58l-.33,1.9a7.53,7.53,0,0,0-2.39-.45c-.91,0-1.8-.07-2.65-.07q-5.16,0-5.16,4a3.17,3.17,0,0,0,.88,2.41,3.43,3.43,0,0,0,2.48.85,6.26,6.26,0,0,0,3-.7,5.27,5.27,0,0,0,2-1.87,4.81,4.81,0,0,0,.74-2.58V38.62l1.09,5.08h-1.34l.34-.45a4.84,4.84,0,0,1-.88,2.63,5.43,5.43,0,0,1-2.14,1.75A7.06,7.06,0,0,1,258.72,48.25Zm6.42-.18-.25-7.15-.2-.24V36.14a6.06,6.06,0,0,0-1.37-4.4A6.09,6.09,0,0,0,259,30.3l-3.52-.08.31-2.31,3.1.05q4.06.08,5.94,2.15c1.25,1.38,1.88,3.52,1.88,6.4v9.22l2.84.3v1.85Z"/><path class="cls-1" d="M198,48.25a5.68,5.68,0,0,1-4.47-1.81,7.13,7.13,0,0,1-1.63-5,7.84,7.84,0,0,1,1.49-4.93,6.63,6.63,0,0,1,4.2-2.42l1.09,1.53a6.51,6.51,0,0,0-3.5,2A5.41,5.41,0,0,0,194,41.27a4.92,4.92,0,0,0,1.17,3.48A4.26,4.26,0,0,0,198.39,46a5.9,5.9,0,0,0,5.33-3.25c1.26-2.17,1.89-5.22,1.89-9.17h2q0,7-2.51,10.84A8,8,0,0,1,198,48.25Zm8.91-.37L196.81,35.45a13.5,13.5,0,0,1-2-3.44,9.69,9.69,0,0,1-.69-3.58,8.31,8.31,0,0,1,1.64-5.49,5.69,5.69,0,0,1,4.6-1.94l.06,2.26a3.67,3.67,0,0,0-3,1.36,6,6,0,0,0-1.09,3.85,7,7,0,0,0,.59,2.78,11.37,11.37,0,0,0,1.6,2.63l11.24,14Zm-3-20.94a3.79,3.79,0,0,0-.92-2.72,3.44,3.44,0,0,0-2.6-1L200.33,21a5.55,5.55,0,0,1,4.2,1.55A6.09,6.09,0,0,1,206,26.94Z"/><path class="cls-1" d="M95.76,46.67V20.16h2.07V46.67Zm.67-12V32.31h12.62v2.32Zm11.15,12V20.16h2.06V46.67Z"/><path class="cls-1" d="M120.5,47a5.89,5.89,0,0,1-5.16-2.69c-1.23-1.79-1.84-4.31-1.84-7.58s.61-5.8,1.84-7.58a6.32,6.32,0,0,1,10.33,0q1.83,2.67,1.83,7.58c0,3.27-.61,5.79-1.83,7.58A5.9,5.9,0,0,1,120.5,47Zm0-2.33a4,4,0,0,0,3.59-2.07,11.27,11.27,0,0,0,1.27-5.87,11.25,11.25,0,0,0-1.27-5.87,4.16,4.16,0,0,0-7.18,0,11.25,11.25,0,0,0-1.27,5.87,11.27,11.27,0,0,0,1.27,5.87A4,4,0,0,0,120.5,44.71Z"/><path class="cls-1" d="M130.26,29.16V26.88h14.51v2.28ZM135,37.33V20.91h2.09V37.33ZM141.3,47a5.63,5.63,0,0,1-4.74-2q-1.53-2-1.53-6V35.84h2.09V39a7,7,0,0,0,1.1,4.3,4,4,0,0,0,3.39,1.4,16.82,16.82,0,0,0,1.76-.1c.57-.07,1.16-.16,1.79-.28l.23,2.26c-.69.15-1.36.26-2,.34A19.65,19.65,0,0,1,141.3,47Z"/><path class="cls-1" d="M157.55,47a7.84,7.84,0,0,1-6.37-2.72q-2.25-2.73-2.25-7.73,0-4.8,1.9-7.44a6.18,6.18,0,0,1,5.34-2.64,5.86,5.86,0,0,1,5,2.39q1.77,2.38,1.77,6.79a17.43,17.43,0,0,1-.09,1.94H150.62V35.51h10.32a8.51,8.51,0,0,0-1.24-5,4.07,4.07,0,0,0-3.5-1.75,4.39,4.39,0,0,0-3.87,2A10.08,10.08,0,0,0,151,36.55a9.12,9.12,0,0,0,1.82,6.06,6.41,6.41,0,0,0,5.15,2.14,15,15,0,0,0,2-.14,19.41,19.41,0,0,0,2-.39l.3,2.3a14.64,14.64,0,0,1-2.28.4C159.05,47,158.29,47,157.55,47Z"/><path class="cls-1" d="M166.29,20.94V18.67h5.52v2.27ZM177.09,47a5,5,0,0,1-4.2-1.77q-1.37-1.77-1.36-5.45V18.67h2.09V39.76a8.29,8.29,0,0,0,.4,2.77,3.09,3.09,0,0,0,1.28,1.64,4.34,4.34,0,0,0,2.31.54,11.17,11.17,0,0,0,3.2-.6l.24,2.28a13.05,13.05,0,0,1-2,.49A11.5,11.5,0,0,1,177.09,47Z"/><path class="cls-2" d="M24.33,12.86a11.21,11.21,0,0,1,.38-2.13c.19-.53.1-1.12.36-1.58a4.7,4.7,0,0,0,.27-1.49,2.49,2.49,0,0,1,.2-.4.59.59,0,0,0,.1-.28,8.88,8.88,0,0,1,.05-.9,3.83,3.83,0,0,1,.22-.62A1,1,0,0,0,26,5.17a4.54,4.54,0,0,1,0-.74c.06-.29.2-.56.26-.85a5.3,5.3,0,0,0,.1-.8c0-.32,0-.64.26-.92.1-.1.08-.29.08-.43,0-.58.53-1,1.19-1.19a.4.4,0,0,0,.18-.07A.8.8,0,0,1,29,.11c.09,0,.16.13.24.13a1.79,1.79,0,0,1,1,.52,5.52,5.52,0,0,0,.81.38c.42.24.82.51,1.25.76.19.11.42.19.61.3s.53.35.81.5.56.24.82.39c.43.23.84.5,1.27.74.25.14.57.23.8.39.4.29,1,.35,1.3.77.09.13.34.19.53.28.47.23,1,.43,1.42.68s1,.65,1.59.94c.17.1.41.22.63,0a2.57,2.57,0,0,1,.63-.38l1.46-.82c.22-.12.46-.21.68-.33s.71-.43,1.08-.63l1.51-.8c.42-.23.82-.49,1.24-.72s.81-.44,1.21-.66l.5-.29c.55-.29,1.12-.57,1.66-.88A16,16,0,0,1,53.65.4,2.4,2.4,0,0,1,55,0a2.45,2.45,0,0,1,1.46.93c.36.46.11,1,.35,1.37s.12,1,.37,1.4.16,1,.27,1.42a4.14,4.14,0,0,0,.2.43,2.81,2.81,0,0,1,.12.48A3,3,0,0,0,58,7.27c.19.34.08.77.13,1.16a2.89,2.89,0,0,0,.22.52.74.74,0,0,1,.08.28c0,.33,0,.65,0,1,0,.18-.05.39.25.49,0,0,0,.07,0,.11a.2.2,0,0,1,0,.07,3.26,3.26,0,0,0,.4,2l.06,0a15.41,15.41,0,0,0,2.8.33c.64.41,1.49.12,2.15.44l.13,0,2.91.34c.27,0,.55,0,.75.21,0,.06.23,0,.35.06.45,0,.9,0,1.34.05a2.83,2.83,0,0,1,.63.18,2.79,2.79,0,0,0,.4.07,3.79,3.79,0,0,1,1.6.22,2,2,0,0,0,.86.06,2.11,2.11,0,0,1,1.37.52,1.21,1.21,0,0,1,.58,1.17,2.67,2.67,0,0,1-.5.85,7,7,0,0,1-.5.61c-.17.19-.35.37-.53.56s-.1.08-.11.13c0,.32-.39.47-.61.69s-.31.42-.48.62-.33.37-.49.56-.35.47-.55.7-.6.65-.89,1-.33.43-.51.63-.41.44-.6.67-.51.63-.78.94c-.07.09-.2.16-.27.25a11.94,11.94,0,0,1-.78.95c-.37.35-.48.88-1.08,1.08a1.66,1.66,0,0,1-.54.1H59.44c-.32,0-.64.07-.8-.25,0-.09-.13-.18-.14-.28,0-.46,0-.92-.08-1.38A4.69,4.69,0,0,0,58,23.41c-.17-.32-.21-.63-.34-.93a10.74,10.74,0,0,0-.55-1,.47.47,0,0,1-.09-.22,1.65,1.65,0,0,0-.57-.85.36.36,0,0,1-.11-.17c0-.3-.32-.45-.54-.65,0,0-.09-.05-.11-.08A4.54,4.54,0,0,0,54.29,18c-.28-.2-.46-.5-.75-.68s-.67-.64-1.21-.8a5.51,5.51,0,0,1-.91-.57c-.5-.27-1-.51-1.54-.76l-1-.46-.19-.06c-.54-.17-1.08-.37-1.64-.51s-1.2-.25-1.8-.34a3.5,3.5,0,0,1-1.4-.23.87.87,0,0,0-.4-.06c-1.23,0-2.45,0-3.68,0a2.4,2.4,0,0,0-.54.17,2.48,2.48,0,0,1-.61.07,7.28,7.28,0,0,0-2.33.48l-.16,0-1.6.53h0c-.71,0-1.16.47-1.75.69a7.48,7.48,0,0,0-1.21.73c-.21.13-.47.22-.68.36s-.68.44-1,.68-.63.51-.93.77-.34.36-.5.54l-.38.43c-.31.33-.64.65-.93,1a2.56,2.56,0,0,0-.35.53c-.16.28-.29.57-.44.85a2.64,2.64,0,0,1-.21.29.87.87,0,0,0-.09.11A4.15,4.15,0,0,1,25.62,23c-.31.43-.11.94-.36,1.28-.5.67-.18,1.36-.29,2-.07.41-.28.6-.8.6-2.23,0-4.46,0-6.69,0a1.09,1.09,0,0,1-.82-.36,7.1,7.1,0,0,1-1-1.15c-.21-.3-.61-.54-.72-.79-.17-.44-.58-.7-.82-1.07A5.58,5.58,0,0,0,13,22.24c-.28-.23-.34-.54-.62-.77a8.15,8.15,0,0,1-1-1,4.12,4.12,0,0,1-.33-.4c-.28-.37-.54-.76-.84-1.13A11.88,11.88,0,0,1,9.46,18c-.29-.43-1-.7-.91-1.28,0-.06-.14-.12-.15-.18a1.13,1.13,0,0,1,0-.48,1,1,0,0,1,.23-.39c.14-.17.26-.41.46-.47.43-.12.77-.41,1.29-.37a1.89,1.89,0,0,0,1.1-.19,3.61,3.61,0,0,1,1.07-.08c.35,0,.73.06,1-.21.1-.09.37-.05.56-.06a3.66,3.66,0,0,0,1.65-.23.42.42,0,0,1,.12,0l2.78-.32A14.63,14.63,0,0,0,21,13.38a9.85,9.85,0,0,1,1.31-.19C22.94,13.1,23.59,13,24.33,12.86Z"/><path class="cls-3" d="M75.09,42.32a4,4,0,0,1-.5,1,1.89,1.89,0,0,1-.38.43,3.38,3.38,0,0,1-2.35.6q-34.32,0-68.65,0a4.64,4.64,0,0,1-2.44-.65s-.09,0-.1,0c-.05-.35-.54-.55-.47-1,0-.11-.17-.24-.19-.36a1.81,1.81,0,0,1,0-.57c0-.09.16-.17.15-.25,0-.57.45-.93.85-1.28a2,2,0,0,1,1.07-.38,15.91,15.91,0,0,1,1.83-.06H70.37c.73,0,1.45,0,2.18,0a2.5,2.5,0,0,1,2,1A1.78,1.78,0,0,1,75.09,42.32Z"/><path class="cls-4" d="M83,52.72a5.41,5.41,0,0,1-.54.53,2.37,2.37,0,0,1-.7.33,4.66,4.66,0,0,1-1.26.27H38.54a2.59,2.59,0,0,1-1.77-.66c-.28-.24-.59-.46-.88-.7l-.06,0a2.35,2.35,0,0,0-.35-1c0-.12.12-.29.19-.44s.07-.08.07-.11a1.25,1.25,0,0,1,.42-1,1.61,1.61,0,0,1,.61-.48,13.4,13.4,0,0,1,1.54-.55,1.92,1.92,0,0,1,.54,0H80.43a2.79,2.79,0,0,1,.85.21,3.78,3.78,0,0,1,1.06.54c.29.22.55.46.82.69,0,0,0,.11,0,.16.08.26.15.51.24.76A4.44,4.44,0,0,1,83,52.72Z"/><path class="cls-5" d="M56,33.4c.1.45-.31.73-.56,1a3.05,3.05,0,0,1-1.79.72,20.59,20.59,0,0,1-4.7.18q-18.24,0-36.48,0a8.6,8.6,0,0,1-2.33-.29,1.76,1.76,0,0,1-1.29-.88,5.76,5.76,0,0,1-.31-.88s-.07-.09-.11-.12a.42.42,0,0,1,0-.67c.06,0,.16-.13.14-.19-.12-.4.27-.66.44-1s.42-.32.67-.44A7.44,7.44,0,0,1,13,30.63c6.35,0,12.69,0,19,0,6.88,0,13.77,0,20.66,0a5,5,0,0,1,2.48.61c.23.12.38.44.56.63C56.22,32.36,55.91,32.89,56,33.4Z"/><path class="cls-6" d="M29.28,26.59c.08-.29.16-.48.19-.67s0-.47,0-.71-.05-.45.25-.6c0,0,0-.08,0-.12a10.18,10.18,0,0,1,.42-1.43,4,4,0,0,1,.6-.86c.11-.16.23-.32.33-.48a8.91,8.91,0,0,1,1.41-1.55,12.87,12.87,0,0,1,2-1.41,9.82,9.82,0,0,1,1.83-.83A18.52,18.52,0,0,1,40,17.05a10,10,0,0,1,2.37-.14,24.26,24.26,0,0,1,2.53.42l.12,0c.55.13,1.1.22,1.63.38a9.33,9.33,0,0,0,1,.45,5,5,0,0,1,1.36.68,6.08,6.08,0,0,1,1,.68c.15.11.28.23.42.34.41.34.84.65,1.23,1a4.11,4.11,0,0,1,.44.59c.2.26.41.5.61.75a.41.41,0,0,1,0,.09c.13.3.16.67.41.88s.16.74.39,1c.44.54.22,1.11.32,1.66,0,.08.06.15.08.22s.18.39.1.48-.28.45-.7.34a2.9,2.9,0,0,0-.66,0H30.4a.57.57,0,0,0-.13,0A1,1,0,0,1,29.28,26.59Z"/><path class="cls-7" d="M29.09,51.39a1.89,1.89,0,0,1-.54,1.25c-.12.12-.17.31-.3.41a4.21,4.21,0,0,1-1.76.68,6,6,0,0,1-1.12.12H18.51c-2.4,0-4.79,0-7.19,0a2.83,2.83,0,0,1-1.44-.4,4.09,4.09,0,0,1-.72-.4c-.25-.24-.55-.48-.57-.84s.05-.46-.26-.63c-.07,0,0-.29.08-.44s.16-.13.15-.18a1.26,1.26,0,0,1,.43-1,1.84,1.84,0,0,1,1.27-.77,5.16,5.16,0,0,0,.52-.16,2.51,2.51,0,0,1,.61-.1H25.82a4.43,4.43,0,0,1,2.15.62,1.49,1.49,0,0,1,.87,1.21C28.85,50.94,29.11,51.17,29.09,51.39Z"/><path class="cls-8" d="M83.42,33.05a4.56,4.56,0,0,0-.2.59,1.34,1.34,0,0,1-.61.83,4.13,4.13,0,0,1-2.51.66c-4.63,0-9.26,0-13.89,0-.31,0-.61,0-.92,0a2.74,2.74,0,0,1-1.7-.69c-.38-.33-.69-.64-.65-1.12,0-.1-.14-.2-.18-.25a2.22,2.22,0,0,0,.18-.65c0-.43.27-.7.55-1a3.78,3.78,0,0,1,1-.66,1,1,0,0,1,.4-.08H80.38a4.2,4.2,0,0,1,1.84.35,1,1,0,0,1,.41.31c.2.31.64.52.6.94,0,.14.13.28.17.43A1,1,0,0,1,83.42,33.05Z"/></g></g></svg>